# xmcd CD database file
#
# Track frame offsets:
#	150
#	18380
#	32665
#	59602
#	84415
#	99862
#	120670
#	144147
#	160207
#	171395
#	202542
#
# Disc length: 2928 seconds
#
# Revision: 0
# Processed by: cddbd v1.5PL3 Copyright (c) Steve Scherf et al.
# Submitted via: CDex 1.50beta9
#
DISCID=800b6e0b
DTITLE=THE GROOVERS - MONOCHROME CHAMELEON
DYEAR=1994
DGENRE=Rock
TTITLE0=鍵穴に突き刺せ
TTITLE1=魔法のサムシング
TTITLE2=新しいブルース,新しいブギー
TTITLE3=夢の中でしか
TTITLE4=ウェイティング・マン
TTITLE5=幻想列車
TTITLE6=モノクローム・カメレオン
TTITLE7=爆弾係
TTITLE8=グッド･モーニング･シャングリラ
TTITLE9=僕を呼んでよ
TTITLE10=俺に落ち度
EXTD=YEAR: 1994
EXTT0=
EXTT1=
EXTT2=
EXTT3=
EXTT4=
EXTT5=
EXTT6=
EXTT7=
EXTT8=
EXTT9=
EXTT10=
PLAYORDER=
